Coordinates
version=1
nRows=9
nColumns=24
inDegrees=yes

Units are S.I. units (second, meters, Newtons, ...)
Angles are in degrees.

endheader
time	pelvis_tilt	pelvis_list	pelvis_rotation	pelvis_tx	pelvis_ty	pelvis_tz	hip_flexion_r	hip_adduction_r	hip_rotation_r	knee_angle_r	ankle_angle_r	subtalar_angle_r	mtp_angle_r	hip_flexion_l	hip_adduction_l	hip_rotation_l	knee_angle_l	ankle_angle_l	subtalar_angle_l	mtp_angle_l	lumbar_extension	lumbar_bending	lumbar_rotation
      6.15000000	      4.67394701	     10.79750021	    -19.41843924	     -0.76995808	      0.64677640	      0.19141866	     -6.99886813	    -12.65108310	      8.24751024	    -54.66177401	    -19.66197218	    -30.40644487	      0.00000000	     23.57664147	      8.74462696	    -12.87637565	    -27.46400219	      5.42304407	    -19.33039262	      0.00000000	     -8.64324754	    -19.34199678	     23.49375625
      6.16000000	      4.74904010	     11.61810211	    -19.09433656	     -0.75944979	      0.64871078	      0.19075612	     -4.06504291	    -12.62636587	      8.73264426	    -58.92559839	    -19.25240658	    -32.32047304	      0.00000000	     22.32353462	     10.13677786	    -12.80807397	    -26.49968829	      6.37255711	    -18.68831428	      0.00000000	     -8.94654745	    -20.13455273	     22.34277911
      6.17000000	      4.62428627	     12.12717719	    -18.56222261	     -0.74914587	      0.65084765	      0.19011426	     -1.13523671	    -12.09740437	      9.17597382	    -62.60568999	    -18.22070090	    -34.30487835	      0.00000000	     21.11623413	     11.15056913	    -12.61859141	    -25.53177529	      7.35218542	    -17.73387870	      0.00000000	     -9.19901363	    -20.50201465	     21.00537545
      6.18000000	      4.31429787	     12.23837823	    -17.86853491	     -0.73901445	      0.65317427	      0.18953574	      1.75252821	    -11.02011192	      9.55033060	    -65.68390555	    -16.43760673	    -35.75801195	      0.00000000	     19.97328132	     11.62373335	    -12.56695413	    -24.71986380	      8.71697976	    -15.87814202	      0.00000000	     -9.41157108	    -20.36739652	     19.62510257
      6.19000000	      4.12802833	     12.11516724	    -16.93740595	     -0.72886064	      0.65589779	      0.18879235	      4.28294260	     -9.78076725	      9.60717483	    -68.12150220	    -13.92522765	    -36.11827677	      0.00000000	     18.47887555	     12.02657515	    -11.98701657	    -23.68206594	      9.70057305	    -14.39571820	      0.00000000	     -9.91854646	    -19.97246172	     17.96143776
      6.20000000	      3.87006009	     11.81070771	    -15.90189778	     -0.71874563	      0.65866638	      0.18799167	      6.76957078	     -8.39205282	      9.53395788	    -70.03544969	    -11.00623583	    -35.43712832	      0.00000000	     16.95380307	     12.22017002	    -11.24689578	    -22.58683578	     10.54566379	    -13.03376136	      0.00000000	    -10.39881115	    -19.33282386	     16.29206434
      6.21000000	      3.61494677	     11.37928954	    -14.78844963	     -0.70862856	      0.66141390	      0.18712121	      9.16018739	     -6.98089399	      9.32310447	    -71.46002582	     -7.86959349	    -33.77432963	      0.00000000	     15.35613522	     12.27902611	    -10.34514341	    -21.43827835	     11.27747094	    -11.83750147	      0.00000000	    -10.90889628	    -18.52782096	     14.62405521
      6.22000000	      3.33884840	     10.87696971	    -13.60796592	     -0.69850167	      0.66400281	      0.18617546	     11.50058946	     -5.62932031	      8.99159900	    -72.43155565	     -4.76405625	    -31.46372951	      0.00000000	     13.75633418	     12.24558982	     -9.28325767	    -20.26532082	     11.88246017	    -10.86714167	      0.00000000	    -11.39049431	    -17.61133431	     12.98322821
      6.23000000	      3.05944065	     10.34318736	    -12.37071988	     -0.68833914	      0.66637728	      0.18517992	     13.76894952	     -4.40210414	      8.55812798	    -72.95130083	     -1.86154328	    -28.89960673	      0.00000000	     12.15632328	     12.15634296	     -8.07272468	    -19.07737554	     12.38312895	    -10.10333786	      0.00000000	    -11.84392541	    -16.63737454	     11.39396626
